<svg width="48" height="48" viewBox="0 0 48 48" fill="none" xmlns="http://www.w3.org/2000/svg">
<circle cx="24" cy="24" r="24" fill="#2852A9"/>
<path fill-rule="evenodd" clip-rule="evenodd" d="M22.6309 14.3823C22.7975 14.1907 23.0562 14.1064 23.3037 14.1633C26.6118 14.9227 28.2839 18.5478 27.8907 21.7911C27.7378 23.0519 27.3602 24.0403 26.8041 24.8266C26.8007 24.8314 26.7973 24.8362 26.7939 24.841C26.9202 24.7789 27.0367 24.712 27.1457 24.6412C27.6883 24.289 28.0866 23.8242 28.6051 23.2191C28.6678 23.1459 28.7322 23.0707 28.7989 22.9934C28.9487 22.8197 29.1752 22.7322 29.4029 22.76C29.6306 22.7878 29.8294 22.9273 29.9329 23.132C30.389 24.0333 30.6457 25.0522 30.6457 26.1291C30.6457 29.7995 27.6702 32.7749 23.9998 32.7749C20.3294 32.7749 17.354 29.7995 17.354 26.1291C17.354 23.8034 18.5491 21.7574 20.3555 20.5708L20.4174 20.5084C20.4492 20.4763 20.4841 20.4475 20.5216 20.4223C21.3153 19.8882 21.8852 19.4513 22.2689 18.9376C22.6314 18.4523 22.854 17.8603 22.854 16.9624C22.854 16.2976 22.7312 15.663 22.5078 15.0791C22.417 14.8419 22.4644 14.574 22.6309 14.3823ZM24.1568 15.9799C24.2044 16.3007 24.229 16.6288 24.229 16.9624C24.229 18.1251 23.9286 19.0133 23.3705 19.7604C22.8464 20.4621 22.1209 21.0011 21.3458 21.5249L21.2795 21.5917C21.244 21.6275 21.2047 21.6592 21.1622 21.6864C19.6974 22.6242 18.729 24.2637 18.729 26.1291C18.729 29.0401 21.0888 31.3999 23.9998 31.3999C26.9108 31.3999 29.2707 29.0401 29.2707 26.1291C29.2707 25.6526 29.2076 25.1914 29.0895 24.7532C28.7409 25.1306 28.3562 25.4948 27.8943 25.7946C27.048 26.3438 25.9889 26.6574 24.4582 26.6574C24.1444 26.6574 23.8705 26.445 23.7923 26.1412C23.7142 25.8373 23.8516 25.5191 24.1264 25.3677C24.7487 25.0249 25.2761 24.6059 25.6814 24.0327C26.0859 23.4608 26.3957 22.6972 26.5257 21.6256C26.8069 19.3057 25.8469 17.016 24.1568 15.9799Z" fill="white"/>
</svg>
