<svg width="48" height="48" viewBox="0 0 48 48" fill="none" xmlns="http://www.w3.org/2000/svg">
<circle cx="24" cy="24" r="24" fill="#5BB797"/>
<path fill-rule="evenodd" clip-rule="evenodd" d="M26.0623 18.0417C26.0623 16.3963 27.3962 15.0625 29.0415 15.0625C30.6869 15.0625 32.0207 16.3963 32.0207 18.0417C32.0207 19.687 30.6869 21.0208 29.0415 21.0208C28.1618 21.0208 27.3712 20.6396 26.8259 20.0333L24.335 21.392L21.5479 22.9846C21.7957 23.4192 21.9373 23.9222 21.9373 24.4583C21.9373 24.73 21.901 24.9931 21.8329 25.2432L26.8259 27.9667C27.3712 27.3604 28.1618 26.9792 29.0415 26.9792C30.6869 26.9792 32.0207 28.313 32.0207 29.9583C32.0207 31.6037 30.6869 32.9375 29.0415 32.9375C27.3962 32.9375 26.0623 31.6037 26.0623 29.9583C26.0623 29.6867 26.0987 29.4235 26.1668 29.1734L21.1738 26.45C20.6284 27.0562 19.8378 27.4375 18.9582 27.4375C17.3128 27.4375 15.979 26.1037 15.979 24.4583C15.979 22.813 17.3128 21.4792 18.9582 21.4792C19.5546 21.4792 20.1101 21.6544 20.576 21.9563L23.6647 20.1914L26.1668 18.8266C26.0987 18.5765 26.0623 18.3133 26.0623 18.0417ZM29.0415 16.4375C28.1555 16.4375 27.4373 17.1557 27.4373 18.0417C27.4373 18.9276 28.1555 19.6458 29.0415 19.6458C29.9275 19.6458 30.6457 18.9276 30.6457 18.0417C30.6457 17.1557 29.9275 16.4375 29.0415 16.4375ZM18.9582 22.8542C18.0722 22.8542 17.354 23.5724 17.354 24.4583C17.354 25.3443 18.0722 26.0625 18.9582 26.0625C19.8441 26.0625 20.5623 25.3443 20.5623 24.4583C20.5623 23.5724 19.8441 22.8542 18.9582 22.8542ZM27.4373 29.9583C27.4373 29.0724 28.1555 28.3542 29.0415 28.3542C29.9275 28.3542 30.6457 29.0724 30.6457 29.9583C30.6457 30.8443 29.9275 31.5625 29.0415 31.5625C28.1555 31.5625 27.4373 30.8443 27.4373 29.9583Z" fill="white"/>
</svg>
