<svg width="48" height="48" viewBox="0 0 48 48" fill="none" xmlns="http://www.w3.org/2000/svg"><circle cx="24" cy="24" r="24" fill="#2852A9"/><path fill-rule="evenodd" clip-rule="evenodd" d="M22.63 14.382a.688.688 0 0 1 .674-.219c3.308.76 4.98 4.385 4.587 7.628-.153 1.26-.53 2.25-1.087 3.036l-.01.014c.126-.062.243-.129.352-.2.542-.352.94-.817 1.46-1.422l.193-.226a.687.687 0 0 1 1.134.139 6.646 6.646 0 1 1-9.577-2.561l.061-.063a.682.682 0 0 1 .105-.086c.793-.534 1.363-.97 1.747-1.484.362-.486.585-1.078.585-1.976 0-.664-.123-1.299-.346-1.883a.688.688 0 0 1 .123-.697Zm1.527 1.598c.047.32.072.649.072.982 0 1.163-.3 2.051-.858 2.798-.525.702-1.25 1.241-2.025 1.765l-.067.067a.685.685 0 0 1-.117.094 5.27 5.27 0 1 0 7.927 3.067 6.325 6.325 0 0 1-1.195 1.042c-.846.549-1.905.862-3.436.862a.688.688 0 0 1-.332-1.29c.623-.342 1.15-.761 1.555-1.334.405-.572.715-1.336.845-2.407.28-2.32-.68-4.61-2.37-5.646Z" fill="#fff"/></svg>