<svg width="48" height="48" viewBox="0 0 48 48" fill="none" xmlns="http://www.w3.org/2000/svg"><circle cx="24" cy="24" r="24" fill="#5BB797"/><path fill-rule="evenodd" clip-rule="evenodd" d="M26.062 18.042a2.98 2.98 0 1 1 .764 1.991l-2.491 1.359-2.787 1.593a2.983 2.983 0 0 1 .285 2.259l4.993 2.723a2.98 2.98 0 1 1-.66 1.207l-4.992-2.724a2.98 2.98 0 1 1-.598-4.494l3.089-1.765 2.502-1.364a2.984 2.984 0 0 1-.105-.785Zm2.98-1.605a1.604 1.604 0 1 0 0 3.209 1.604 1.604 0 0 0 0-3.209Zm-10.084 6.417a1.604 1.604 0 1 0 0 3.208 1.604 1.604 0 0 0 0-3.208Zm8.48 7.104a1.604 1.604 0 1 1 3.208 0 1.604 1.604 0 0 1-3.209 0Z" fill="#fff"/></svg>