<svg width="48" height="48" viewBox="0 0 48 48" fill="none" xmlns="http://www.w3.org/2000/svg"><circle cx="24" cy="24" r="24" fill="#fff"/><path d="M33 34.75H15c-.41 0-.75-.34-.75-.75s.34-.75.75-.75h18c.41 0 .75.34.75.75s-.34.75-.75.75ZM17.6 31.75H16c-.96 0-1.75-.79-1.75-1.75v-8.62c0-.96.79-1.75 1.75-1.75h1.6c.96 0 1.75.79 1.75 1.75V30c0 .96-.79 1.75-1.75 1.75ZM16 21.12c-.14 0-.25.11-.25.25V30c0 .14.11.25.25.25h1.6c.14 0 .25-.11.25-.25v-8.62c0-.14-.11-.25-.25-.25H16v-.01ZM24.8 31.75h-1.6c-.96 0-1.75-.79-1.75-1.75V18.19c0-.96.79-1.75 1.75-1.75h1.6c.96 0 1.75.79 1.75 1.75V30c0 .96-.79 1.75-1.75 1.75Zm-1.6-13.81c-.14 0-.25.11-.25.25V30c0 .14.11.25.25.25h1.6c.14 0 .25-.11.25-.25V18.19c0-.14-.11-.25-.25-.25h-1.6ZM32 31.75h-1.6c-.96 0-1.75-.79-1.75-1.75V15c0-.96.79-1.75 1.75-1.75H32c.96 0 1.75.79 1.75 1.75v15c0 .96-.79 1.75-1.75 1.75Zm-1.6-17c-.14 0-.25.11-.25.25v15c0 .14.11.25.25.25H32c.14 0 .25-.11.25-.25V15c0-.14-.11-.25-.25-.25h-1.6Z" fill="#5BB797"/></svg>