<svg width="20" height="20" viewBox="0 0 20 20" fill="none" xmlns="http://www.w3.org/2000/svg"><g clip-path="url(#a)"><path d="M9.167 7.5h1.667V5h2.5V3.333h-2.5v-2.5H9.167v2.5h-2.5V5h2.5v2.5ZM5.834 15c-.917 0-1.659.75-1.659 1.667 0 .916.742 1.666 1.659 1.666.916 0 1.666-.75 1.666-1.666C7.5 15.75 6.75 15 5.833 15Zm8.333 0c-.917 0-1.659.75-1.659 1.667 0 .916.742 1.666 1.659 1.666s1.667-.75 1.667-1.666c0-.917-.75-1.667-1.667-1.667Zm-8.192-2.708.025-.1.75-1.359h6.209c.625 0 1.175-.341 1.458-.858l3.217-5.842-1.45-.8h-.009L15.258 5l-2.3 4.167h-5.85L7 8.942 5.133 5l-.791-1.667-.783-1.666H.833v1.666H2.5l3 6.325L4.375 11.7a1.612 1.612 0 0 0-.208.8c0 .917.75 1.667 1.667 1.667h10V12.5h-9.65a.212.212 0 0 1-.209-.208Z" fill="#fff"/></g><defs><clipPath id="a"><path fill="#fff" d="M0 0h20v20H0z"/></clipPath></defs></svg>