<svg width="280" height="279" viewBox="0 0 280 279" fill="none" xmlns="http://www.w3.org/2000/svg"><g opacity=".5" fill="#fff"><path d="M163.936 115.219h-48.335v48.208h48.335v-48.208ZM163.936 172.893h-48.335v48.208h48.335v-48.208ZM163.936 230.564h-48.335v48.209h48.335v-48.209ZM279.407 0h-48.335v48.209h48.335V0ZM279.407 115.219h-48.335v48.208h48.335v-48.208ZM279.407 57.672h-48.335v48.209h48.335v-48.21ZM279.407 172.893h-48.335v48.208h48.335v-48.208ZM279.407 230.564h-48.335v48.209h48.335v-48.209ZM221.609 230.564h-48.335v48.209h48.335v-48.209ZM221.609 115.219h-48.335v48.208h48.335v-48.208ZM221.609 172.893h-48.335v48.208h48.335v-48.208ZM221.609 57.672h-48.335v48.209h48.335v-48.21ZM106.133 172.893H57.798v48.208h48.335v-48.208ZM106.133 230.564H57.798v48.209h48.335v-48.209ZM48.335 230.564H0v48.209h48.335v-48.209Z"/></g></svg>