<svg width="627" height="452" viewBox="0 0 627 452" fill="none" xmlns="http://www.w3.org/2000/svg"><g opacity=".5" fill="#fff"><path d="M337.377 115.451h-48.335v48.209h48.335v-48.209ZM337.377 173.125h-48.335v48.209h48.335v-48.209ZM337.377 403.689h-48.335v48.209h48.335v-48.209ZM337.377 288.344h-48.335v48.208h48.335v-48.208ZM337.377 346.018h-48.335v48.208h48.335v-48.208ZM337.377 230.797h-48.335v48.209h48.335v-48.209ZM395.175 346.018H346.84v48.208h48.335v-48.208ZM395.175 403.689H346.84v48.209h48.335v-48.209ZM395.175 115.451H346.84v48.209h48.335v-48.209ZM395.175 57.775H346.84v48.209h48.335V57.775ZM395.175 230.797H346.84v48.209h48.335v-48.209ZM395.175 288.344H346.84v48.208h48.335v-48.208ZM395.175 173.125H346.84v48.209h48.335v-48.209ZM164.108 288.344h-48.335v48.208h48.335v-48.208ZM164.108 346.018h-48.335v48.208h48.335v-48.208ZM164.108 403.689h-48.335v48.209h48.335v-48.209ZM279.58 173.125h-48.335v48.209h48.335v-48.209ZM279.58 288.344h-48.335v48.208h48.335v-48.208ZM279.58 230.797h-48.335v48.209h48.335v-48.209ZM279.58 346.018h-48.335v48.208h48.335v-48.208ZM279.58 403.689h-48.335v48.209h48.335v-48.209ZM221.782 403.689h-48.335v48.209h48.335v-48.209ZM221.782 288.344h-48.335v48.208h48.335v-48.208ZM221.782 346.018h-48.335v48.208h48.335v-48.208ZM221.782 230.797h-48.335v48.209h48.335v-48.209ZM106.306 346.018H57.971v48.208h48.335v-48.208ZM106.306 403.689H57.971v48.209h48.335v-48.209ZM48.508 403.689H.173v48.209h48.335v-48.209ZM510.651 346.018h-48.335v48.208h48.335v-48.208ZM510.651 288.344h-48.335v48.208h48.335v-48.208ZM510.651 230.797h-48.335v48.209h48.335v-48.209ZM510.651 403.689h-48.335v48.209h48.335v-48.209ZM452.859 173.125h-48.335v48.209h48.335v-48.209ZM452.859 230.797h-48.335v48.209h48.335v-48.209ZM452.859 403.689h-48.335v48.209h48.335v-48.209ZM452.859 288.344h-48.335v48.208h48.335v-48.208ZM452.859 346.018h-48.335v48.208h48.335v-48.208ZM626.253 403.689h-48.335v48.209h48.335v-48.209ZM626.253 346.018h-48.335v48.208h48.335v-48.208ZM626.253 288.344h-48.335v48.208h48.335v-48.208ZM626.253 57.775h-48.335v48.209h48.335V57.775ZM626.253.102h-48.335V48.31h48.335V.102ZM626.253 115.451h-48.335v48.209h48.335v-48.209ZM626.253 173.125h-48.335v48.209h48.335v-48.209ZM626.253 230.797h-48.335v48.209h48.335v-48.209ZM568.449 230.797h-48.335v48.209h48.335v-48.209ZM568.449 173.125h-48.335v48.209h48.335v-48.209ZM568.449 403.689h-48.335v48.209h48.335v-48.209ZM568.449 115.451h-48.335v48.209h48.335v-48.209ZM568.449 288.344h-48.335v48.208h48.335v-48.208ZM568.449 346.018h-48.335v48.208h48.335v-48.208Z"/></g></svg>