<svg width="1095" height="559" viewBox="0 0 1095 559" fill="none" xmlns="http://www.w3.org/2000/svg"><g opacity=".5" fill="#fff"><path d="M589.625 3.697h-84.517v84.297h84.517V3.697ZM589.625 104.543h-84.517v84.296h84.517v-84.296ZM589.625 507.703h-84.517v84.296h84.517v-84.296ZM589.625 306.014h-84.517v84.296h84.517v-84.296ZM589.625 406.859h-84.517v84.297h84.517v-84.297ZM589.625 205.387h-84.517v84.296h84.517v-84.296ZM690.69 406.859h-84.517v84.297h84.517v-84.297ZM690.69 507.703h-84.517v84.296h84.517v-84.296ZM690.69 3.697h-84.517v84.297h84.517V3.697ZM690.69 205.387h-84.517v84.296h84.517v-84.296ZM690.69 306.014h-84.517v84.296h84.517v-84.296ZM690.69 104.543h-84.517v84.296h84.517v-84.296ZM286.654 306.014h-84.517v84.296h84.517v-84.296ZM286.654 406.859h-84.517v84.297h84.517v-84.297ZM286.654 507.703h-84.517v84.296h84.517v-84.296ZM488.564 104.543h-84.517v84.296h84.517v-84.296ZM488.564 306.014h-84.517v84.296h84.517v-84.296ZM488.564 205.387h-84.517v84.296h84.517v-84.296ZM488.564 406.859h-84.517v84.297h84.517v-84.297ZM488.564 507.703h-84.517v84.296h84.517v-84.296ZM387.499 507.703h-84.517v84.296h84.517v-84.296ZM387.499 306.014h-84.517v84.296h84.517v-84.296ZM387.499 406.859h-84.517v84.297h84.517v-84.297ZM387.499 205.387h-84.517v84.296h84.517v-84.296ZM185.581 406.859h-84.517v84.297h84.517v-84.297ZM185.581 507.703h-84.517v84.296h84.517v-84.296ZM84.517 507.703H0v84.296h84.517v-84.296ZM892.608 406.859h-84.517v84.297h84.517v-84.297ZM892.608 306.014h-84.517v84.296h84.517v-84.296ZM892.608 205.387h-84.517v84.296h84.517v-84.296ZM892.608 507.703h-84.517v84.296h84.517v-84.296ZM791.555 104.543h-84.517v84.296h84.517v-84.296ZM791.555 205.387h-84.517v84.296h84.517v-84.296ZM791.555 507.703h-84.517v84.296h84.517v-84.296ZM791.555 306.014h-84.517v84.296h84.517v-84.296ZM791.555 406.859h-84.517v84.297h84.517v-84.297ZM1094.75 507.703h-84.52v84.296h84.52v-84.296ZM1094.75 406.859h-84.52v84.297h84.52v-84.297ZM1094.75 306.014h-84.52v84.296h84.52v-84.296ZM1094.75 3.697h-84.52v84.297h84.52V3.697ZM1094.75 104.543h-84.52v84.296h84.52v-84.296ZM1094.75 205.387h-84.52v84.296h84.52v-84.296ZM993.672 205.387h-84.517v84.296h84.517v-84.296ZM993.672 104.543h-84.517v84.296h84.517v-84.296ZM993.672 507.703h-84.517v84.296h84.517v-84.296ZM993.672 3.697h-84.517v84.297h84.517V3.697ZM993.672 306.014h-84.517v84.296h84.517v-84.296ZM993.672 406.859h-84.517v84.297h84.517v-84.297Z"/></g></svg>