<svg width="22" height="22" viewBox="0 0 22 22" fill="none" xmlns="http://www.w3.org/2000/svg"><path fill-rule="evenodd" clip-rule="evenodd" d="M9.63 1.383a.687.687 0 0 1 .674-.22c3.308.76 4.98 4.385 4.587 7.628-.153 1.261-.53 2.25-1.087 3.036l-.01.014c.126-.062.243-.129.352-.2.542-.352.94-.817 1.46-1.422l.193-.225a.687.687 0 0 1 1.134.138 6.646 6.646 0 1 1-9.577-2.561l.061-.062a.688.688 0 0 1 .105-.087c.793-.534 1.363-.97 1.747-1.484.362-.485.585-1.077.585-1.975 0-.665-.123-1.3-.346-1.884a.688.688 0 0 1 .123-.696Zm1.527 1.597c.047.32.072.649.072.983 0 1.162-.3 2.05-.858 2.798-.525.701-1.25 1.24-2.025 1.764l-.066.067a.688.688 0 0 1-.118.095 5.27 5.27 0 1 0 7.927 3.067 6.325 6.325 0 0 1-1.195 1.04c-.846.55-1.905.864-3.436.864a.688.688 0 0 1-.332-1.29c.623-.343 1.15-.762 1.555-1.335.405-.572.715-1.336.845-2.407.28-2.32-.68-4.61-2.37-5.646Z" fill="#fff"/></svg>