<svg width="124" height="89" viewBox="0 0 124 89" fill="none" xmlns="http://www.w3.org/2000/svg"><rect width="124" height="89" rx="10" fill="#fff"/><path d="M66.63 25.714h-8.26v8.239h8.26v-8.24ZM66.63 35.57h-8.26v8.24h8.26v-8.24ZM66.63 74.975h-8.26v8.24h8.26v-8.24ZM66.63 55.262h-8.26v8.239h8.26v-8.239ZM66.63 65.119h-8.26v8.239h8.26v-8.24ZM66.63 45.427h-8.26v8.239h8.26v-8.24ZM76.508 65.119h-8.26v8.239h8.26v-8.24ZM76.508 74.975h-8.26v8.24h8.26v-8.24ZM76.508 25.714h-8.26v8.239h8.26v-8.24ZM76.508 15.857h-8.26v8.239h8.26v-8.24ZM76.508 45.427h-8.26v8.239h8.26v-8.24ZM76.508 55.262h-8.26v8.239h8.26v-8.239ZM76.508 35.57h-8.26v8.24h8.26v-8.24ZM37.017 55.262h-8.26v8.239h8.26v-8.239ZM37.017 65.119h-8.26v8.239h8.26v-8.24ZM37.017 74.975h-8.26v8.24h8.26v-8.24ZM56.751 35.57h-8.26v8.24h8.26v-8.24ZM56.751 55.262h-8.26v8.239h8.26v-8.239ZM56.751 45.427h-8.26v8.239h8.26v-8.24ZM56.751 65.119h-8.26v8.239h8.26v-8.24ZM56.751 74.975h-8.26v8.24h8.26v-8.24ZM46.874 74.975h-8.26v8.24h8.26v-8.24ZM46.874 55.262h-8.26v8.239h8.26v-8.239ZM46.874 65.119h-8.26v8.239h8.26v-8.24ZM46.874 45.427h-8.26v8.239h8.26v-8.24ZM27.138 65.119h-8.26v8.239h8.26v-8.24ZM27.138 74.975h-8.26v8.24h8.26v-8.24ZM17.26 74.975H9v8.24h8.26v-8.24ZM96.244 65.119h-8.261v8.239h8.26v-8.24ZM96.244 55.262h-8.261v8.239h8.26v-8.239ZM96.244 45.427h-8.261v8.239h8.26v-8.24ZM96.244 74.975h-8.261v8.24h8.26v-8.24ZM86.366 35.57h-8.261v8.24h8.26v-8.24ZM86.366 45.427h-8.261v8.239h8.26v-8.24ZM86.366 74.975h-8.261v8.24h8.26v-8.24ZM86.366 55.262h-8.261v8.239h8.26v-8.239ZM86.366 65.119h-8.261v8.239h8.26v-8.24ZM116 74.975h-8.261v8.24H116v-8.24ZM116 65.119h-8.261v8.239H116v-8.24ZM116 55.262h-8.261v8.239H116v-8.239ZM116 15.857h-8.261v8.239H116v-8.24ZM116 6h-8.261v8.24H116V6ZM116 25.714h-8.261v8.239H116v-8.24ZM116 35.57h-8.261v8.24H116v-8.24ZM116 45.427h-8.261v8.239H116v-8.24ZM106.121 45.427h-8.26v8.239h8.26v-8.24ZM106.121 35.57h-8.26v8.24h8.26v-8.24ZM106.121 74.975h-8.26v8.24h8.26v-8.24ZM106.121 25.714h-8.26v8.239h8.26v-8.24ZM106.121 55.262h-8.26v8.239h8.26v-8.239ZM106.121 65.119h-8.26v8.239h8.26v-8.24Z" fill="#DFEFF8"/><path d="M45.472 11.867h14.192l3.192 45.53h.582l3.192-45.53H80.8v61.512h-7.872V28.194h-.733L67.73 73.379h-9.166l-4.487-45.185h-.733v45.185h-7.872V11.867Z" fill="#5BB797"/><path d="M101.204 19.74v53.618h-9.166V19.739h-7.032v-7.872h23.229v7.915l-7.031-.043ZM30.634 62.984a1.71 1.71 0 0 1-1.402 1.682c-.345.065-.69.087-1.056.087a5.67 5.67 0 0 1-1.057-.087 1.71 1.71 0 0 1-1.402-1.682V22.263c0-.82.582-1.531 1.402-1.682a5.825 5.825 0 0 1 1.057-.087c.366 0 .711.022 1.056.087a1.71 1.71 0 0 1 1.402 1.682v40.72ZM39.78 20.71a8.655 8.655 0 0 0-4.723-7.721 15.055 15.055 0 0 0-6.88-1.661h-.022c-2.76 0-5.069.733-6.88 1.66a8.655 8.655 0 0 0-4.724 7.722v43.827a8.695 8.695 0 0 0 4.724 7.721c1.833.928 4.14 1.661 6.88 1.661h.022c2.739 0 5.047-.733 6.88-1.66a8.696 8.696 0 0 0 4.723-7.722V20.71Z" fill="#2852A9"/></svg>