<svg width="32" height="32" viewBox="0 0 32 32" fill="none" xmlns="http://www.w3.org/2000/svg"><rect width="32" height="32" rx="16" fill="#2852A9"/><path d="M10.05 11c-.163 0-.317.04-.454.106l5.912 6.1a.663.663 0 0 0 .974 0l5.922-6.1A1.036 1.036 0 0 0 21.95 11h-11.9Zm12.846.608-4.44 4.582 4.44 4.207c.067-.141.104-.3.104-.469v-7.856a1.09 1.09 0 0 0-.104-.463ZM9.1 11.614a1.093 1.093 0 0 0-.099.458v7.856c0 .168.037.328.104.469l4.435-4.202-4.44-4.58Zm8.859 5.084-.979 1.01a1.367 1.367 0 0 1-1.969 0l-.973-1.005-4.43 4.197c.135.063.285.1.443.1h11.9c.159 0 .309-.037.443-.1l-4.435-4.202Z" fill="#fff"/></svg>