<svg width="32" height="32" viewBox="0 0 32 32" fill="none" xmlns="http://www.w3.org/2000/svg"><rect x=".5" y=".5" width="31" height="31" rx="15.5" stroke="#fff"/><path d="M9.625 10.75c-.174 0-.34.041-.486.112l6.334 6.404a.72.72 0 0 0 1.043 0l6.346-6.405a1.128 1.128 0 0 0-.487-.111H9.625Zm13.764.639-4.758 4.81 4.758 4.419a1.13 1.13 0 0 0 .111-.493v-8.25c0-.174-.041-.339-.111-.486Zm-14.783.006a1.127 1.127 0 0 0-.106.48v8.25c0 .177.04.344.111.492l4.752-4.412-4.757-4.81Zm9.492 5.338-1.049 1.06c-.58.586-1.53.587-2.11 0l-1.042-1.054-4.746 4.406c.144.067.304.106.474.106h12.75c.17 0 .331-.039.475-.106l-4.752-4.412Z" fill="#fff"/></svg>