<svg width="32" height="32" viewBox="0 0 32 32" fill="none" xmlns="http://www.w3.org/2000/svg"><rect width="32" height="32" rx="16" fill="#2852A9"/><g clip-path="url(#a)"><path d="M12.413 15.193a10.1 10.1 0 0 0 4.394 4.394l1.466-1.467c.18-.18.447-.24.68-.16.747.247 1.554.38 2.38.38.367 0 .667.3.667.667v2.326c0 .367-.3.667-.667.667C15.073 22 10 16.927 10 10.667c0-.367.3-.667.667-.667H13c.367 0 .667.3.667.667 0 .833.133 1.633.38 2.38a.67.67 0 0 1-.167.68l-1.467 1.466Z" fill="#fff"/></g><defs><clipPath id="a"><path fill="#fff" transform="translate(8 8)" d="M0 0h16v16H0z"/></clipPath></defs></svg>