<svg width="24" height="24" viewBox="0 0 24 24" fill="none" xmlns="http://www.w3.org/2000/svg"><rect x=".5" y=".5" width="23" height="23" rx="11.5" stroke="#fff"/><path d="M13.703 12.997a.5.5 0 0 0-.707.707l.707-.707Zm1.993 3.407a.5.5 0 1 0 .707-.707l-.707.707Zm-4.597-2.654a2.65 2.65 0 0 1-2.65-2.65h-1a3.65 3.65 0 0 0 3.65 3.65v-1ZM8.45 11.1a2.65 2.65 0 0 1 2.65-2.65v-1a3.65 3.65 0 0 0-3.65 3.65h1Zm2.65-2.65a2.65 2.65 0 0 1 2.65 2.65h1a3.65 3.65 0 0 0-3.65-3.65v1Zm2.65 2.65a2.65 2.65 0 0 1-2.65 2.65v1a3.65 3.65 0 0 0 3.65-3.65h-1Zm-.753 2.604 2.7 2.7.707-.707-2.7-2.7-.707.707Z" fill="#fff"/></svg>