<svg width="22" height="22" viewBox="0 0 22 22" fill="none" xmlns="http://www.w3.org/2000/svg"><path fill-rule="evenodd" clip-rule="evenodd" d="M13.062 5.042a2.98 2.98 0 1 1 .764 1.991l-2.491 1.359-2.787 1.593a2.965 2.965 0 0 1 .285 2.258l4.993 2.724a2.98 2.98 0 1 1-.66 1.207L8.175 13.45a2.98 2.98 0 1 1-.598-4.494l3.089-1.765 2.502-1.364a2.983 2.983 0 0 1-.105-.785Zm2.98-1.604a1.604 1.604 0 1 0 0 3.208 1.604 1.604 0 0 0 0-3.208ZM5.957 9.854a1.604 1.604 0 1 0 0 3.209 1.604 1.604 0 0 0 0-3.209Zm8.48 7.104a1.604 1.604 0 1 1 3.208 0 1.604 1.604 0 0 1-3.209 0Z" fill="#fff"/></svg>