<svg width="32" height="32" viewBox="0 0 32 32" fill="none" xmlns="http://www.w3.org/2000/svg"><rect x=".5" y=".5" width="31" height="31" rx="15.5" stroke="#fff"/><path fill-rule="evenodd" clip-rule="evenodd" d="M9.068 15.157c4.014-1.819 6.691-3.018 8.03-3.597 3.826-1.655 4.62-1.944 5.14-1.957.114-.002.37.025.536.16.14.116.18.272.2.381.019.11.043.36.026.555-.192 2.232-1.055 7.65-1.495 10.15-.187 1.058-.566 1.415-.935 1.452-.801.08-1.414-.532-2.195-1.046-1.221-.806-1.911-1.308-3.097-2.093-1.37-.909-.489-1.419.283-2.248.202-.218 3.713-3.524 3.78-3.822.008-.037.015-.176-.066-.249-.081-.072-.2-.046-.286-.026-.122.03-2.055 1.353-5.8 3.971-.548.39-1.046.582-1.494.575-.493-.007-1.443-.275-2.15-.504-.867-.281-1.556-.428-1.499-.916.03-.254.37-.516 1.022-.786Z" fill="#fff"/></svg>