<svg width="36" height="36" viewBox="0 0 36 36" fill="none" xmlns="http://www.w3.org/2000/svg"><path d="M17.25 32.625c-8.475 0-15.375-6.9-15.375-15.375S8.775 1.875 17.25 1.875s15.375 6.9 15.375 15.375-6.9 15.375-15.375 15.375Z" fill="#2852A9"/><path d="M21.3 18.675h-7.5c-.615 0-1.125-.51-1.125-1.125s.51-1.125 1.125-1.125h7.5c.615 0 1.125.51 1.125 1.125s-.51 1.125-1.125 1.125Z" fill="#fff"/><path d="M17.55 22.425c-.615 0-1.125-.51-1.125-1.125v-7.5c0-.615.51-1.125 1.125-1.125s1.125.51 1.125 1.125v7.5c0 .615-.51 1.125-1.125 1.125Z" fill="#fff"/><path d="M32.575 34.5c-.49 0-.978-.18-1.365-.566l-5.15-5.147a1.94 1.94 0 0 1 0-2.727 1.944 1.944 0 0 1 2.73 0l5.15 5.146a1.94 1.94 0 0 1 0 2.728 1.91 1.91 0 0 1-1.365.566Z" fill="#2852A9"/></svg>