<svg width="48" height="48" viewBox="0 0 48 48" fill="none" xmlns="http://www.w3.org/2000/svg">
<circle cx="24" cy="24" r="24" fill="white"/>
<path d="M23.9999 25.74C23.2199 25.74 22.4799 25.44 21.9099 24.88C21.1799 24.15 20.8899 23.1 21.1299 22.07C21.3799 21.02 22.2199 20.18 23.2699 19.93C24.2899 19.68 25.3399 19.97 26.0799 20.71C26.8199 21.45 27.0999 22.49 26.8599 23.52C26.6099 24.57 25.7699 25.41 24.7199 25.66C24.4799 25.71 24.2399 25.74 23.9999 25.74ZM23.9999 21.34C23.8799 21.34 23.7499 21.36 23.6299 21.39C23.1299 21.51 22.72 21.92 22.6 22.42C22.47 22.94 22.6099 23.45 22.9799 23.81C23.3499 24.18 23.8499 24.31 24.3799 24.19C24.8799 24.07 25.2899 23.66 25.4099 23.16C25.5399 22.64 25.3999 22.13 25.0299 21.77C24.7499 21.49 24.3899 21.34 23.9999 21.34Z" fill="#2852A9"/>
<path d="M18.02 29.97C17.84 29.97 17.6499 29.9 17.5099 29.77C15.5699 27.97 14.46 25.43 14.46 22.79C14.46 17.53 18.74 13.25 24 13.25C29.26 13.25 33.5399 17.53 33.5399 22.79C33.5399 25.45 32.47 27.91 30.53 29.74C30.23 30.02 29.75 30.01 29.47 29.71C29.19 29.41 29.2 28.93 29.5 28.65C31.14 27.11 32.0399 25.04 32.0399 22.8C32.0399 18.37 28.43 14.76 24 14.76C19.57 14.76 15.96 18.37 15.96 22.8C15.96 25.06 16.87 27.14 18.53 28.68C18.83 28.96 18.85 29.44 18.57 29.74C18.42 29.89 18.22 29.97 18.02 29.97Z" fill="#2852A9"/>
<path d="M28 27.3C27.82 27.3 27.63 27.23 27.49 27.1C27.19 26.82 27.17 26.34 27.46 26.04C28.29 25.16 28.75 24 28.75 22.8C28.75 20.18 26.62 18.0601 24.01 18.0601C21.4 18.0601 19.27 20.19 19.27 22.8C19.27 24.01 19.73 25.16 20.56 26.04C20.84 26.34 20.83 26.82 20.53 27.1C20.23 27.38 19.75 27.3701 19.47 27.0701C18.38 25.9101 17.77 24.39 17.77 22.8C17.77 19.36 20.57 16.5601 24.01 16.5601C27.45 16.5601 30.25 19.36 30.25 22.8C30.25 24.39 29.65 25.9101 28.55 27.0701C28.4 27.2201 28.2 27.3 28 27.3Z" fill="#2852A9"/>
<path d="M25.4402 34.75H22.5702C21.4302 34.75 20.4202 34.11 19.9302 33.09C19.4402 32.07 19.5702 30.88 20.2802 29.99L21.7202 28.2C22.2802 27.5 23.1102 27.1 24.0102 27.1C24.9102 27.1 25.7402 27.5 26.3002 28.2L27.7402 29.99C28.4502 30.88 28.5902 32.07 28.0902 33.09C27.5802 34.11 26.5702 34.75 25.4402 34.75ZM22.8802 29.13L21.4402 30.92C21.0902 31.36 21.0202 31.93 21.2702 32.43C21.5102 32.94 22.0002 33.24 22.5602 33.24H25.4302C25.9902 33.24 26.4802 32.94 26.7202 32.43C26.9602 31.92 26.9002 31.36 26.5502 30.92L25.1102 29.13C24.5702 28.45 23.4302 28.45 22.8802 29.13Z" fill="#2852A9"/>
</svg>
