<svg width="48" height="48" viewBox="0 0 48 48" fill="none" xmlns="http://www.w3.org/2000/svg">
<circle cx="24" cy="24" r="24" fill="white"/>
<path d="M33 34.75H15C14.59 34.75 14.25 34.41 14.25 34C14.25 33.59 14.59 33.25 15 33.25H33C33.41 33.25 33.75 33.59 33.75 34C33.75 34.41 33.41 34.75 33 34.75Z" fill="#5BB797"/>
<path d="M17.6 31.75H16C15.04 31.75 14.25 30.96 14.25 30V21.38C14.25 20.42 15.04 19.63 16 19.63H17.6C18.56 19.63 19.35 20.42 19.35 21.38V30C19.35 30.96 18.56 31.75 17.6 31.75ZM16 21.12C15.86 21.12 15.75 21.23 15.75 21.37V30C15.75 30.14 15.86 30.25 16 30.25H17.6C17.74 30.25 17.85 30.14 17.85 30V21.38C17.85 21.24 17.74 21.13 17.6 21.13H16V21.12Z" fill="#5BB797"/>
<path d="M24.8002 31.75H23.2002C22.2402 31.75 21.4502 30.96 21.4502 30V18.19C21.4502 17.23 22.2402 16.44 23.2002 16.44H24.8002C25.7602 16.44 26.5502 17.23 26.5502 18.19V30C26.5502 30.96 25.7602 31.75 24.8002 31.75ZM23.2002 17.94C23.0602 17.94 22.9502 18.05 22.9502 18.19V30C22.9502 30.14 23.0602 30.25 23.2002 30.25H24.8002C24.9402 30.25 25.0502 30.14 25.0502 30V18.19C25.0502 18.05 24.9402 17.94 24.8002 17.94H23.2002Z" fill="#5BB797"/>
<path d="M31.9999 31.75H30.3999C29.4399 31.75 28.6499 30.96 28.6499 30V15C28.6499 14.04 29.4399 13.25 30.3999 13.25H31.9999C32.9599 13.25 33.7499 14.04 33.7499 15V30C33.7499 30.96 32.9599 31.75 31.9999 31.75ZM30.3999 14.75C30.2599 14.75 30.1499 14.86 30.1499 15V30C30.1499 30.14 30.2599 30.25 30.3999 30.25H31.9999C32.1399 30.25 32.2499 30.14 32.2499 30V15C32.2499 14.86 32.1399 14.75 31.9999 14.75H30.3999Z" fill="#5BB797"/>
</svg>
