<svg width="48" height="48" viewBox="0 0 48 48" fill="none" xmlns="http://www.w3.org/2000/svg">
<circle cx="24" cy="24" r="24" fill="white"/>
<path d="M23.9999 25.7397C23.2199 25.7397 22.4799 25.4398 21.9099 24.8798C21.1799 24.1498 20.8899 23.0998 21.1299 22.0698C21.3799 21.0198 22.2199 20.1797 23.2699 19.9297C24.2899 19.6797 25.3399 19.9698 26.0799 20.7098C26.8199 21.4498 27.0999 22.4898 26.8599 23.5198C26.6099 24.5698 25.7699 25.4097 24.7199 25.6597C24.4799 25.7097 24.2399 25.7397 23.9999 25.7397ZM23.9999 21.3398C23.8799 21.3398 23.7499 21.3598 23.6299 21.3898C23.1299 21.5098 22.72 21.9197 22.6 22.4197C22.47 22.9397 22.6099 23.4498 22.9799 23.8098C23.3499 24.1798 23.8499 24.3098 24.3799 24.1898C24.8799 24.0698 25.2899 23.6597 25.4099 23.1597C25.5399 22.6397 25.3999 22.1298 25.0299 21.7698C24.7499 21.4898 24.3899 21.3398 23.9999 21.3398Z" fill="#2852A9"/>
<path d="M18.02 29.97C17.84 29.97 17.6499 29.9 17.5099 29.77C15.5699 27.97 14.46 25.43 14.46 22.79C14.46 17.53 18.74 13.25 24 13.25C29.26 13.25 33.5399 17.53 33.5399 22.79C33.5399 25.45 32.47 27.91 30.53 29.74C30.23 30.02 29.75 30.01 29.47 29.71C29.19 29.41 29.2 28.93 29.5 28.65C31.14 27.11 32.0399 25.04 32.0399 22.8C32.0399 18.37 28.43 14.76 24 14.76C19.57 14.76 15.96 18.37 15.96 22.8C15.96 25.06 16.87 27.14 18.53 28.68C18.83 28.96 18.85 29.44 18.57 29.74C18.42 29.89 18.22 29.97 18.02 29.97Z" fill="#2852A9"/>
<path d="M28 27.3C27.82 27.3 27.63 27.23 27.49 27.1C27.19 26.82 27.17 26.34 27.46 26.04C28.29 25.16 28.75 24 28.75 22.8C28.75 20.18 26.62 18.0601 24.01 18.0601C21.4 18.0601 19.27 20.19 19.27 22.8C19.27 24.01 19.73 25.16 20.56 26.04C20.84 26.34 20.83 26.82 20.53 27.1C20.23 27.38 19.75 27.3701 19.47 27.0701C18.38 25.9101 17.77 24.39 17.77 22.8C17.77 19.36 20.57 16.5601 24.01 16.5601C27.45 16.5601 30.25 19.36 30.25 22.8C30.25 24.39 29.65 25.9101 28.55 27.0701C28.4 27.2201 28.2 27.3 28 27.3Z" fill="#2852A9"/>
<path d="M25.4402 34.7501H22.5702C21.4302 34.7501 20.4202 34.1101 19.9302 33.0901C19.4402 32.0701 19.5702 30.8801 20.2802 29.9901L21.7202 28.2001C22.2802 27.5001 23.1102 27.1001 24.0102 27.1001C24.9102 27.1001 25.7402 27.5001 26.3002 28.2001L27.7402 29.9901C28.4502 30.8801 28.5902 32.0701 28.0902 33.0901C27.5802 34.1101 26.5702 34.7501 25.4402 34.7501ZM22.8802 29.1301L21.4402 30.9201C21.0902 31.3601 21.0202 31.9301 21.2702 32.4301C21.5102 32.9401 22.0002 33.2401 22.5602 33.2401H25.4302C25.9902 33.2401 26.4802 32.9401 26.7202 32.4301C26.9602 31.9201 26.9002 31.3601 26.5502 30.9201L25.1102 29.1301C24.5702 28.4501 23.4302 28.4501 22.8802 29.1301Z" fill="#2852A9"/>
</svg>
