<svg width="48" height="48" viewBox="0 0 48 48" fill="none" xmlns="http://www.w3.org/2000/svg">
<circle cx="24" cy="24" r="24" fill="white"/>
<path d="M33 34.75H15C14.59 34.75 14.25 34.41 14.25 34C14.25 33.59 14.59 33.25 15 33.25H33C33.41 33.25 33.75 33.59 33.75 34C33.75 34.41 33.41 34.75 33 34.75Z" fill="#5BB797"/>
<path d="M17.6 31.7499H16C15.04 31.7499 14.25 30.9599 14.25 29.9999V21.3799C14.25 20.4199 15.04 19.6299 16 19.6299H17.6C18.56 19.6299 19.35 20.4199 19.35 21.3799V29.9999C19.35 30.9599 18.56 31.7499 17.6 31.7499ZM16 21.1199C15.86 21.1199 15.75 21.2299 15.75 21.3699V29.9999C15.75 30.1399 15.86 30.2499 16 30.2499H17.6C17.74 30.2499 17.85 30.1399 17.85 29.9999V21.3799C17.85 21.2399 17.74 21.1299 17.6 21.1299H16V21.1199Z" fill="#5BB797"/>
<path d="M24.8002 31.7499H23.2002C22.2402 31.7499 21.4502 30.9599 21.4502 29.9999V18.1899C21.4502 17.2299 22.2402 16.4399 23.2002 16.4399H24.8002C25.7602 16.4399 26.5502 17.2299 26.5502 18.1899V29.9999C26.5502 30.9599 25.7602 31.7499 24.8002 31.7499ZM23.2002 17.9399C23.0602 17.9399 22.9502 18.0499 22.9502 18.1899V29.9999C22.9502 30.1399 23.0602 30.2499 23.2002 30.2499H24.8002C24.9402 30.2499 25.0502 30.1399 25.0502 29.9999V18.1899C25.0502 18.0499 24.9402 17.9399 24.8002 17.9399H23.2002Z" fill="#5BB797"/>
<path d="M31.9999 31.75H30.3999C29.4399 31.75 28.6499 30.96 28.6499 30V15C28.6499 14.04 29.4399 13.25 30.3999 13.25H31.9999C32.9599 13.25 33.7499 14.04 33.7499 15V30C33.7499 30.96 32.9599 31.75 31.9999 31.75ZM30.3999 14.75C30.2599 14.75 30.1499 14.86 30.1499 15V30C30.1499 30.14 30.2599 30.25 30.3999 30.25H31.9999C32.1399 30.25 32.2499 30.14 32.2499 30V15C32.2499 14.86 32.1399 14.75 31.9999 14.75H30.3999Z" fill="#5BB797"/>
</svg>
