<svg width="20" height="20" viewBox="0 0 20 20" fill="none" xmlns="http://www.w3.org/2000/svg">
<g clip-path="url(#clip0_601_4785)">
<path d="M9.16683 7.49992H10.8335V4.99992H13.3335V3.33325H10.8335V0.833252H9.16683V3.33325H6.66683V4.99992H9.16683V7.49992ZM5.8335 14.9999C4.91683 14.9999 4.17516 15.7499 4.17516 16.6666C4.17516 17.5833 4.91683 18.3333 5.8335 18.3333C6.75016 18.3333 7.50016 17.5833 7.50016 16.6666C7.50016 15.7499 6.75016 14.9999 5.8335 14.9999ZM14.1668 14.9999C13.2502 14.9999 12.5085 15.7499 12.5085 16.6666C12.5085 17.5833 13.2502 18.3333 14.1668 18.3333C15.0835 18.3333 15.8335 17.5833 15.8335 16.6666C15.8335 15.7499 15.0835 14.9999 14.1668 14.9999ZM5.97516 12.2916L6.00016 12.1916L6.75016 10.8333H12.9585C13.5835 10.8333 14.1335 10.4916 14.4168 9.97492L17.6335 4.13325L16.1835 3.33325H16.1752L15.2585 4.99992L12.9585 9.16658H7.1085L7.00016 8.94158L5.1335 4.99992L4.34183 3.33325L3.5585 1.66659H0.833496V3.33325H2.50016L5.50016 9.65825L4.37516 11.6999C4.24183 11.9333 4.16683 12.2083 4.16683 12.4999C4.16683 13.4166 4.91683 14.1666 5.8335 14.1666H15.8335V12.4999H6.1835C6.07516 12.4999 5.97516 12.4083 5.97516 12.2916Z" fill="white"/>
</g>
<defs>
<clipPath id="clip0_601_4785">
<rect width="20" height="20" fill="white"/>
</clipPath>
</defs>
</svg>
