<svg width="627" height="452" viewBox="0 0 627 452" fill="none" xmlns="http://www.w3.org/2000/svg">
<g opacity="0.5">
<path d="M337.377 115.451H289.042V163.66H337.377V115.451Z" fill="white"/>
<path d="M337.377 173.125H289.042V221.334H337.377V173.125Z" fill="white"/>
<path d="M337.377 403.689H289.042V451.898H337.377V403.689Z" fill="white"/>
<path d="M337.377 288.344H289.042V336.552H337.377V288.344Z" fill="white"/>
<path d="M337.377 346.018H289.042V394.226H337.377V346.018Z" fill="white"/>
<path d="M337.377 230.797H289.042V279.006H337.377V230.797Z" fill="white"/>
<path d="M395.175 346.018H346.84V394.226H395.175V346.018Z" fill="white"/>
<path d="M395.175 403.689H346.84V451.898H395.175V403.689Z" fill="white"/>
<path d="M395.175 115.451H346.84V163.66H395.175V115.451Z" fill="white"/>
<path d="M395.175 57.7754H346.84V105.984H395.175V57.7754Z" fill="white"/>
<path d="M395.175 230.797H346.84V279.006H395.175V230.797Z" fill="white"/>
<path d="M395.175 288.344H346.84V336.552H395.175V288.344Z" fill="white"/>
<path d="M395.175 173.125H346.84V221.334H395.175V173.125Z" fill="white"/>
<path d="M164.108 288.344H115.773V336.552H164.108V288.344Z" fill="white"/>
<path d="M164.108 346.018H115.773V394.226H164.108V346.018Z" fill="white"/>
<path d="M164.108 403.689H115.773V451.898H164.108V403.689Z" fill="white"/>
<path d="M279.58 173.125H231.245V221.334H279.58V173.125Z" fill="white"/>
<path d="M279.58 288.344H231.245V336.552H279.58V288.344Z" fill="white"/>
<path d="M279.58 230.797H231.245V279.006H279.58V230.797Z" fill="white"/>
<path d="M279.58 346.018H231.245V394.226H279.58V346.018Z" fill="white"/>
<path d="M279.58 403.689H231.245V451.898H279.58V403.689Z" fill="white"/>
<path d="M221.782 403.689H173.447V451.898H221.782V403.689Z" fill="white"/>
<path d="M221.782 288.344H173.447V336.552H221.782V288.344Z" fill="white"/>
<path d="M221.782 346.018H173.447V394.226H221.782V346.018Z" fill="white"/>
<path d="M221.782 230.797H173.447V279.006H221.782V230.797Z" fill="white"/>
<path d="M106.306 346.018H57.9707V394.226H106.306V346.018Z" fill="white"/>
<path d="M106.306 403.689H57.9707V451.898H106.306V403.689Z" fill="white"/>
<path d="M48.5077 403.689H0.172852V451.898H48.5077V403.689Z" fill="white"/>
<path d="M510.651 346.018H462.316V394.226H510.651V346.018Z" fill="white"/>
<path d="M510.651 288.344H462.316V336.552H510.651V288.344Z" fill="white"/>
<path d="M510.651 230.797H462.316V279.006H510.651V230.797Z" fill="white"/>
<path d="M510.651 403.689H462.316V451.898H510.651V403.689Z" fill="white"/>
<path d="M452.859 173.125H404.524V221.334H452.859V173.125Z" fill="white"/>
<path d="M452.859 230.797H404.524V279.006H452.859V230.797Z" fill="white"/>
<path d="M452.859 403.689H404.524V451.898H452.859V403.689Z" fill="white"/>
<path d="M452.859 288.344H404.524V336.552H452.859V288.344Z" fill="white"/>
<path d="M452.859 346.018H404.524V394.226H452.859V346.018Z" fill="white"/>
<path d="M626.253 403.689H577.918V451.898H626.253V403.689Z" fill="white"/>
<path d="M626.253 346.018H577.918V394.226H626.253V346.018Z" fill="white"/>
<path d="M626.253 288.344H577.918V336.552H626.253V288.344Z" fill="white"/>
<path d="M626.253 57.7754H577.918V105.984H626.253V57.7754Z" fill="white"/>
<path d="M626.253 0.101562H577.918V48.3103H626.253V0.101562Z" fill="white"/>
<path d="M626.253 115.451H577.918V163.66H626.253V115.451Z" fill="white"/>
<path d="M626.253 173.125H577.918V221.334H626.253V173.125Z" fill="white"/>
<path d="M626.253 230.797H577.918V279.006H626.253V230.797Z" fill="white"/>
<path d="M568.449 230.797H520.114V279.006H568.449V230.797Z" fill="white"/>
<path d="M568.449 173.125H520.114V221.334H568.449V173.125Z" fill="white"/>
<path d="M568.449 403.689H520.114V451.898H568.449V403.689Z" fill="white"/>
<path d="M568.449 115.451H520.114V163.66H568.449V115.451Z" fill="white"/>
<path d="M568.449 288.344H520.114V336.552H568.449V288.344Z" fill="white"/>
<path d="M568.449 346.018H520.114V394.226H568.449V346.018Z" fill="white"/>
</g>
</svg>
