<svg width="280" height="279" viewBox="0 0 280 279" fill="none" xmlns="http://www.w3.org/2000/svg">
<g opacity="0.5">
<path d="M163.936 115.219H115.601V163.427H163.936V115.219Z" fill="white"/>
<path d="M163.936 172.893H115.601V221.101H163.936V172.893Z" fill="white"/>
<path d="M163.936 230.564H115.601V278.773H163.936V230.564Z" fill="white"/>
<path d="M279.407 0H231.072V48.2087H279.407V0Z" fill="white"/>
<path d="M279.407 115.219H231.072V163.427H279.407V115.219Z" fill="white"/>
<path d="M279.407 57.6719H231.072V105.881H279.407V57.6719Z" fill="white"/>
<path d="M279.407 172.893H231.072V221.101H279.407V172.893Z" fill="white"/>
<path d="M279.407 230.564H231.072V278.773H279.407V230.564Z" fill="white"/>
<path d="M221.609 230.564H173.274V278.773H221.609V230.564Z" fill="white"/>
<path d="M221.609 115.219H173.274V163.427H221.609V115.219Z" fill="white"/>
<path d="M221.609 172.893H173.274V221.101H221.609V172.893Z" fill="white"/>
<path d="M221.609 57.6719H173.274V105.881H221.609V57.6719Z" fill="white"/>
<path d="M106.133 172.893H57.7979V221.101H106.133V172.893Z" fill="white"/>
<path d="M106.133 230.564H57.7979V278.773H106.133V230.564Z" fill="white"/>
<path d="M48.3349 230.564H0V278.773H48.3349V230.564Z" fill="white"/>
</g>
</svg>
