<svg width="1095" height="559" viewBox="0 0 1095 559" fill="none" xmlns="http://www.w3.org/2000/svg">
<g opacity="0.5">
<path d="M589.625 3.69727H505.108V87.9936H589.625V3.69727Z" fill="white"/>
<path d="M589.625 104.543H505.108V188.839H589.625V104.543Z" fill="white"/>
<path d="M589.625 507.703H505.108V591.999H589.625V507.703Z" fill="white"/>
<path d="M589.625 306.014H505.108V390.31H589.625V306.014Z" fill="white"/>
<path d="M589.625 406.859H505.108V491.156H589.625V406.859Z" fill="white"/>
<path d="M589.625 205.387H505.108V289.683H589.625V205.387Z" fill="white"/>
<path d="M690.69 406.859H606.173V491.156H690.69V406.859Z" fill="white"/>
<path d="M690.69 507.703H606.173V591.999H690.69V507.703Z" fill="white"/>
<path d="M690.69 3.69727H606.173V87.9936H690.69V3.69727Z" fill="white"/>
<path d="M690.69 205.387H606.173V289.683H690.69V205.387Z" fill="white"/>
<path d="M690.69 306.014H606.173V390.31H690.69V306.014Z" fill="white"/>
<path d="M690.69 104.543H606.173V188.839H690.69V104.543Z" fill="white"/>
<path d="M286.654 306.014H202.137V390.31H286.654V306.014Z" fill="white"/>
<path d="M286.654 406.859H202.137V491.156H286.654V406.859Z" fill="white"/>
<path d="M286.654 507.703H202.137V591.999H286.654V507.703Z" fill="white"/>
<path d="M488.564 104.543H404.047V188.839H488.564V104.543Z" fill="white"/>
<path d="M488.564 306.014H404.047V390.31H488.564V306.014Z" fill="white"/>
<path d="M488.564 205.387H404.047V289.683H488.564V205.387Z" fill="white"/>
<path d="M488.564 406.859H404.047V491.156H488.564V406.859Z" fill="white"/>
<path d="M488.564 507.703H404.047V591.999H488.564V507.703Z" fill="white"/>
<path d="M387.499 507.703H302.982V591.999H387.499V507.703Z" fill="white"/>
<path d="M387.499 306.014H302.982V390.31H387.499V306.014Z" fill="white"/>
<path d="M387.499 406.859H302.982V491.156H387.499V406.859Z" fill="white"/>
<path d="M387.499 205.387H302.982V289.683H387.499V205.387Z" fill="white"/>
<path d="M185.581 406.859H101.064V491.156H185.581V406.859Z" fill="white"/>
<path d="M185.581 507.703H101.064V591.999H185.581V507.703Z" fill="white"/>
<path d="M84.517 507.703H0V591.999H84.517V507.703Z" fill="white"/>
<path d="M892.608 406.859H808.091V491.156H892.608V406.859Z" fill="white"/>
<path d="M892.608 306.014H808.091V390.31H892.608V306.014Z" fill="white"/>
<path d="M892.608 205.387H808.091V289.683H892.608V205.387Z" fill="white"/>
<path d="M892.608 507.703H808.091V591.999H892.608V507.703Z" fill="white"/>
<path d="M791.555 104.543H707.038V188.839H791.555V104.543Z" fill="white"/>
<path d="M791.555 205.387H707.038V289.683H791.555V205.387Z" fill="white"/>
<path d="M791.555 507.703H707.038V591.999H791.555V507.703Z" fill="white"/>
<path d="M791.555 306.014H707.038V390.31H791.555V306.014Z" fill="white"/>
<path d="M791.555 406.859H707.038V491.156H791.555V406.859Z" fill="white"/>
<path d="M1094.75 507.703H1010.23V591.999H1094.75V507.703Z" fill="white"/>
<path d="M1094.75 406.859H1010.23V491.156H1094.75V406.859Z" fill="white"/>
<path d="M1094.75 306.014H1010.23V390.31H1094.75V306.014Z" fill="white"/>
<path d="M1094.75 3.69727H1010.23V87.9936H1094.75V3.69727Z" fill="white"/>
<path d="M1094.75 104.543H1010.23V188.839H1094.75V104.543Z" fill="white"/>
<path d="M1094.75 205.387H1010.23V289.683H1094.75V205.387Z" fill="white"/>
<path d="M993.672 205.387H909.155V289.683H993.672V205.387Z" fill="white"/>
<path d="M993.672 104.543H909.155V188.839H993.672V104.543Z" fill="white"/>
<path d="M993.672 507.703H909.155V591.999H993.672V507.703Z" fill="white"/>
<path d="M993.672 3.69727H909.155V87.9936H993.672V3.69727Z" fill="white"/>
<path d="M993.672 306.014H909.155V390.31H993.672V306.014Z" fill="white"/>
<path d="M993.672 406.859H909.155V491.156H993.672V406.859Z" fill="white"/>
</g>
</svg>
