<svg width="22" height="22" viewBox="0 0 22 22" fill="none" xmlns="http://www.w3.org/2000/svg">
<path fill-rule="evenodd" clip-rule="evenodd" d="M9.63095 1.38253C9.79752 1.19086 10.0562 1.10663 10.3037 1.16345C13.6118 1.92292 15.2839 5.54799 14.8907 8.79127C14.7378 10.052 14.3602 11.0404 13.8041 11.8268C13.8007 11.8316 13.7973 11.8364 13.7939 11.8412C13.9202 11.7791 14.0367 11.7121 14.1457 11.6414C14.6883 11.2892 15.0866 10.8244 15.6051 10.2193C15.6678 10.1461 15.7322 10.0709 15.7989 9.99363C15.9487 9.81992 16.1752 9.73236 16.4029 9.76018C16.6306 9.788 16.8294 9.92753 16.9329 10.1322C17.389 11.0335 17.6457 12.0524 17.6457 13.1292C17.6457 16.7996 14.6702 19.7751 10.9998 19.7751C7.32944 19.7751 4.354 16.7996 4.354 13.1292C4.354 10.8036 5.54907 8.75754 7.35546 7.57096L7.41738 7.50856C7.4492 7.4765 7.48409 7.44766 7.52157 7.42244C8.31527 6.88836 8.88519 6.45153 9.2689 5.93781C9.63137 5.45251 9.854 4.86051 9.854 3.96258C9.854 3.29774 9.73124 2.66319 9.50777 2.07924C9.41701 1.84208 9.46437 1.5742 9.63095 1.38253ZM11.1568 2.98007C11.2044 3.30089 11.229 3.62899 11.229 3.96258C11.229 5.1253 10.9286 6.01345 10.3705 6.76062C9.84643 7.46233 9.12092 8.00126 8.34577 8.52507L8.2795 8.59185C8.24399 8.62763 8.20465 8.6594 8.1622 8.68658C6.69744 9.62436 5.729 11.2639 5.729 13.1292C5.729 16.0402 8.08884 18.4001 10.9998 18.4001C13.9108 18.4001 16.2707 16.0402 16.2707 13.1292C16.2707 12.6527 16.2076 12.1916 16.0895 11.7533C15.7409 12.1307 15.3562 12.4949 14.8943 12.7947C14.048 13.344 12.9889 13.6576 11.4582 13.6576C11.1444 13.6576 10.8705 13.4452 10.7923 13.1414C10.7142 12.8375 10.8516 12.5193 11.1264 12.3679C11.7487 12.0251 12.2761 11.606 12.6814 11.0329C13.0859 10.461 13.3957 9.69735 13.5257 8.62576C13.8069 6.30592 12.8469 4.01614 11.1568 2.98007Z" fill="white"/>
</svg>
