<svg width="124" height="89" viewBox="0 0 124 89" fill="none" xmlns="http://www.w3.org/2000/svg">
<rect width="124" height="89" rx="10" fill="white"/>
<path d="M66.6303 25.7136H58.3696V33.9527H66.6303V25.7136Z" fill="#DFEFF8"/>
<path d="M66.6303 35.5703H58.3696V43.8094H66.6303V35.5703Z" fill="#DFEFF8"/>
<path d="M66.6303 74.9751H58.3696V83.2142H66.6303V74.9751Z" fill="#DFEFF8"/>
<path d="M66.6303 55.262H58.3696V63.501H66.6303V55.262Z" fill="#DFEFF8"/>
<path d="M66.6303 65.1187H58.3696V73.3577H66.6303V65.1187Z" fill="#DFEFF8"/>
<path d="M66.6303 45.4268H58.3696V53.6658H66.6303V45.4268Z" fill="#DFEFF8"/>
<path d="M76.5077 65.1187H68.2471V73.3577H76.5077V65.1187Z" fill="#DFEFF8"/>
<path d="M76.5077 74.9751H68.2471V83.2142H76.5077V74.9751Z" fill="#DFEFF8"/>
<path d="M76.5077 25.7136H68.2471V33.9527H76.5077V25.7136Z" fill="#DFEFF8"/>
<path d="M76.5077 15.8567H68.2471V24.0958H76.5077V15.8567Z" fill="#DFEFF8"/>
<path d="M76.5077 45.4268H68.2471V53.6658H76.5077V45.4268Z" fill="#DFEFF8"/>
<path d="M76.5077 55.262H68.2471V63.501H76.5077V55.262Z" fill="#DFEFF8"/>
<path d="M76.5077 35.5703H68.2471V43.8094H76.5077V35.5703Z" fill="#DFEFF8"/>
<path d="M37.017 55.262H28.7563V63.501H37.017V55.262Z" fill="#DFEFF8"/>
<path d="M37.017 65.1187H28.7563V73.3577H37.017V65.1187Z" fill="#DFEFF8"/>
<path d="M37.017 74.9751H28.7563V83.2142H37.017V74.9751Z" fill="#DFEFF8"/>
<path d="M56.7514 35.5703H48.4907V43.8094H56.7514V35.5703Z" fill="#DFEFF8"/>
<path d="M56.7514 55.262H48.4907V63.501H56.7514V55.262Z" fill="#DFEFF8"/>
<path d="M56.7514 45.4268H48.4907V53.6658H56.7514V45.4268Z" fill="#DFEFF8"/>
<path d="M56.7514 65.1187H48.4907V73.3577H56.7514V65.1187Z" fill="#DFEFF8"/>
<path d="M56.7514 74.9751H48.4907V83.2142H56.7514V74.9751Z" fill="#DFEFF8"/>
<path d="M46.8739 74.9751H38.6133V83.2142H46.8739V74.9751Z" fill="#DFEFF8"/>
<path d="M46.8739 55.262H38.6133V63.501H46.8739V55.262Z" fill="#DFEFF8"/>
<path d="M46.8739 65.1187H38.6133V73.3577H46.8739V65.1187Z" fill="#DFEFF8"/>
<path d="M46.8739 45.4268H38.6133V53.6658H46.8739V45.4268Z" fill="#DFEFF8"/>
<path d="M27.1381 65.1187H18.8774V73.3577H27.1381V65.1187Z" fill="#DFEFF8"/>
<path d="M27.1381 74.9751H18.8774V83.2142H27.1381V74.9751Z" fill="#DFEFF8"/>
<path d="M17.2606 74.9751H9V83.2142H17.2606V74.9751Z" fill="#DFEFF8"/>
<path d="M96.2436 65.1187H87.9829V73.3577H96.2436V65.1187Z" fill="#DFEFF8"/>
<path d="M96.2436 55.262H87.9829V63.501H96.2436V55.262Z" fill="#DFEFF8"/>
<path d="M96.2436 45.4268H87.9829V53.6658H96.2436V45.4268Z" fill="#DFEFF8"/>
<path d="M96.2436 74.9751H87.9829V83.2142H96.2436V74.9751Z" fill="#DFEFF8"/>
<path d="M86.3656 35.5703H78.105V43.8094H86.3656V35.5703Z" fill="#DFEFF8"/>
<path d="M86.3656 45.4268H78.105V53.6658H86.3656V45.4268Z" fill="#DFEFF8"/>
<path d="M86.3656 74.9751H78.105V83.2142H86.3656V74.9751Z" fill="#DFEFF8"/>
<path d="M86.3656 55.262H78.105V63.501H86.3656V55.262Z" fill="#DFEFF8"/>
<path d="M86.3656 65.1187H78.105V73.3577H86.3656V65.1187Z" fill="#DFEFF8"/>
<path d="M116 74.9751H107.739V83.2142H116V74.9751Z" fill="#DFEFF8"/>
<path d="M116 65.1187H107.739V73.3577H116V65.1187Z" fill="#DFEFF8"/>
<path d="M116 55.262H107.739V63.501H116V55.262Z" fill="#DFEFF8"/>
<path d="M116 15.8567H107.739V24.0958H116V15.8567Z" fill="#DFEFF8"/>
<path d="M116 6H107.739V14.2391H116V6Z" fill="#DFEFF8"/>
<path d="M116 25.7136H107.739V33.9527H116V25.7136Z" fill="#DFEFF8"/>
<path d="M116 35.5703H107.739V43.8094H116V35.5703Z" fill="#DFEFF8"/>
<path d="M116 45.4268H107.739V53.6658H116V45.4268Z" fill="#DFEFF8"/>
<path d="M106.121 45.4268H97.8604V53.6658H106.121V45.4268Z" fill="#DFEFF8"/>
<path d="M106.121 35.5703H97.8604V43.8094H106.121V35.5703Z" fill="#DFEFF8"/>
<path d="M106.121 74.9751H97.8604V83.2142H106.121V74.9751Z" fill="#DFEFF8"/>
<path d="M106.121 25.7136H97.8604V33.9527H106.121V25.7136Z" fill="#DFEFF8"/>
<path d="M106.121 55.262H97.8604V63.501H106.121V55.262Z" fill="#DFEFF8"/>
<path d="M106.121 65.1187H97.8604V73.3577H106.121V65.1187Z" fill="#DFEFF8"/>
<path d="M45.4717 11.8667H59.6636L62.8557 57.3973H63.4381L66.6302 11.8667H80.8005V73.3794H72.9281V28.1939H72.1948L67.7301 73.3794H58.5636L54.0774 28.1939H53.3441V73.3794H45.4717V11.8667Z" fill="#5BB797"/>
<path d="M101.204 19.7391V73.3578H92.0376V19.7391H85.0063V11.8667H108.235V19.7823L101.204 19.7391Z" fill="#2852A9"/>
<path d="M30.6344 62.9839C30.6344 63.8035 30.052 64.5152 29.2324 64.6662C28.8873 64.7309 28.5423 64.7525 28.1756 64.7525C27.8089 64.7525 27.4638 64.7309 27.1187 64.6662C26.2992 64.5152 25.7168 63.8035 25.7168 62.9839V22.263C25.7168 21.4434 26.2992 20.7316 27.1187 20.5807C27.4638 20.516 27.8305 20.4944 28.1756 20.4944C28.5423 20.4944 28.8873 20.516 29.2324 20.5807C30.052 20.7316 30.6344 21.4434 30.6344 22.263V62.9839ZM39.7793 20.7101C39.7793 17.4533 37.9676 14.4768 35.0559 12.9886C33.2441 12.0612 30.9148 11.3279 28.1756 11.3279H28.154C25.3933 11.3279 23.0855 12.0612 21.2738 12.9886C18.362 14.4768 16.5503 17.4533 16.5503 20.7101V64.5368C16.5503 67.7936 18.3836 70.7701 21.2738 72.2583C23.1071 73.1857 25.4149 73.919 28.154 73.919H28.1756C30.9148 73.919 33.2226 73.1857 35.0559 72.2583C37.946 70.7701 39.7793 67.7936 39.7793 64.5368V40.3156V20.7101Z" fill="#2852A9"/>
</svg>
