<svg width="32" height="32" viewBox="0 0 32 32" fill="none" xmlns="http://www.w3.org/2000/svg">
<rect width="32" height="32" rx="16" fill="#2852A9"/>
<path d="M10.0501 11.0003C9.88736 11.0003 9.73342 11.0394 9.59623 11.1063L15.5082 17.2051C15.7829 17.489 16.2063 17.489 16.4815 17.2051L22.4041 11.106C22.2669 11.0392 22.1128 11 21.9501 11L10.0501 11.0003ZM22.8961 11.6085L18.4555 16.1899L22.8961 20.3972C22.963 20.256 23 20.0963 23 19.9284L23 12.0717C23 11.9057 22.9617 11.7485 22.8961 11.6085ZM9.09851 11.6141C9.03479 11.7524 9 11.9082 9 12.0716L9 19.9283C9 20.0961 9.03699 20.2559 9.10388 20.397L13.5392 16.1954L9.09851 11.6141ZM17.958 16.6977L16.9791 17.7077C16.4384 18.2651 15.5507 18.2658 15.0103 17.7077L14.0369 16.7033L9.6072 20.8995C9.7416 20.963 9.89175 21 10.0502 21L21.9503 21C22.1087 21 22.2589 20.9631 22.3933 20.8996L17.958 16.6977Z" fill="white"/>
</svg>
