<svg width="32" height="32" viewBox="0 0 32 32" fill="none" xmlns="http://www.w3.org/2000/svg">
<rect x="0.5" y="0.5" width="31" height="31" rx="15.5" stroke="white"/>
<path d="M9.62509 10.7503C9.45074 10.7503 9.28581 10.7914 9.13882 10.8616L15.473 17.2658C15.7674 17.5639 16.221 17.5639 16.5159 17.2658L22.8615 10.8613C22.7145 10.7912 22.5495 10.75 22.3751 10.75L9.62509 10.7503ZM23.3887 11.389L18.6308 16.1997L23.3887 20.6177C23.4604 20.4694 23.5 20.3017 23.5 20.1254L23.5 11.8754C23.5 11.701 23.4589 11.536 23.3887 11.389ZM8.60555 11.3949C8.53727 11.54 8.5 11.7037 8.5 11.8753L8.5 20.1253C8.5 20.3015 8.53963 20.4693 8.6113 20.6175L13.3635 16.2055L8.60555 11.3949ZM18.0978 16.733L17.049 17.7936C16.4697 18.3788 15.5186 18.3796 14.9396 17.7936L13.8967 16.7389L9.15057 21.1451C9.29457 21.2118 9.45545 21.2507 9.62522 21.2507L22.3753 21.2507C22.5451 21.2507 22.706 21.212 22.85 21.1453L18.0978 16.733Z" fill="white"/>
</svg>
