<svg width="32" height="32" viewBox="0 0 32 32" fill="none" xmlns="http://www.w3.org/2000/svg">
<rect width="32" height="32" rx="16" fill="#2852A9"/>
<g clip-path="url(#clip0_408_4665)">
<path d="M15.9997 9.33398C13.4197 9.33398 11.333 11.4207 11.333 14.0007C11.333 17.5007 15.9997 22.6673 15.9997 22.6673C15.9997 22.6673 20.6663 17.5007 20.6663 14.0007C20.6663 11.4207 18.5797 9.33398 15.9997 9.33398ZM15.9997 15.6673C15.0797 15.6673 14.333 14.9207 14.333 14.0007C14.333 13.0807 15.0797 12.334 15.9997 12.334C16.9197 12.334 17.6663 13.0807 17.6663 14.0007C17.6663 14.9207 16.9197 15.6673 15.9997 15.6673Z" fill="white"/>
</g>
<defs>
<clipPath id="clip0_408_4665">
<rect width="16" height="16" fill="white" transform="translate(8 8)"/>
</clipPath>
</defs>
</svg>
