<svg width="24" height="24" viewBox="0 0 24 24" fill="none" xmlns="http://www.w3.org/2000/svg">
<g opacity="0.3">
<rect x="0.5" y="0.5" width="23" height="23" rx="11.5" stroke="white"/>
<path d="M13.7037 12.9966C13.5085 12.8014 13.1919 12.8014 12.9966 12.9966C12.8014 13.1919 12.8014 13.5085 12.9966 13.7037L13.7037 12.9966ZM15.6966 16.4037C15.8919 16.599 16.2085 16.599 16.4037 16.4037C16.599 16.2085 16.599 15.8919 16.4037 15.6966L15.6966 16.4037ZM11.1002 13.7502C9.63664 13.7502 8.4502 12.5637 8.4502 11.1002H7.4502C7.4502 13.116 9.08436 14.7502 11.1002 14.7502V13.7502ZM8.4502 11.1002C8.4502 9.63664 9.63664 8.4502 11.1002 8.4502V7.4502C9.08436 7.4502 7.4502 9.08436 7.4502 11.1002H8.4502ZM11.1002 8.4502C12.5637 8.4502 13.7502 9.63664 13.7502 11.1002H14.7502C14.7502 9.08436 13.116 7.4502 11.1002 7.4502V8.4502ZM13.7502 11.1002C13.7502 12.5637 12.5637 13.7502 11.1002 13.7502V14.7502C13.116 14.7502 14.7502 13.116 14.7502 11.1002H13.7502ZM12.9966 13.7037L15.6966 16.4037L16.4037 15.6966L13.7037 12.9966L12.9966 13.7037Z" fill="white"/>
</g>
</svg>
