<svg width="24" height="24" viewBox="0 0 24 24" fill="none" xmlns="http://www.w3.org/2000/svg">
<rect x="0.5" y="0.5" width="23" height="23" rx="11.5" stroke="white"/>
<path d="M13.7028 12.9966C13.5075 12.8014 13.1909 12.8014 12.9957 12.9966C12.8004 13.1919 12.8004 13.5085 12.9957 13.7037L13.7028 12.9966ZM15.6957 16.4037C15.8909 16.599 16.2075 16.599 16.4028 16.4037C16.598 16.2085 16.598 15.8919 16.4028 15.6966L15.6957 16.4037ZM11.0992 13.7502C9.63566 13.7502 8.44922 12.5637 8.44922 11.1002H7.44922C7.44922 13.116 9.08338 14.7502 11.0992 14.7502V13.7502ZM8.44922 11.1002C8.44922 9.63664 9.63566 8.4502 11.0992 8.4502V7.4502C9.08338 7.4502 7.44922 9.08436 7.44922 11.1002H8.44922ZM11.0992 8.4502C12.5628 8.4502 13.7492 9.63664 13.7492 11.1002H14.7492C14.7492 9.08436 13.1151 7.4502 11.0992 7.4502V8.4502ZM13.7492 11.1002C13.7492 12.5637 12.5628 13.7502 11.0992 13.7502V14.7502C13.1151 14.7502 14.7492 13.116 14.7492 11.1002H13.7492ZM12.9957 13.7037L15.6957 16.4037L16.4028 15.6966L13.7028 12.9966L12.9957 13.7037Z" fill="white"/>
</svg>
