<svg width="22" height="22" viewBox="0 0 22 22" fill="none" xmlns="http://www.w3.org/2000/svg">
<path fill-rule="evenodd" clip-rule="evenodd" d="M13.0623 5.04167C13.0623 3.39632 14.3962 2.0625 16.0415 2.0625C17.6869 2.0625 19.0207 3.39632 19.0207 5.04167C19.0207 6.68702 17.6869 8.02083 16.0415 8.02083C15.1618 8.02083 14.3712 7.63959 13.8259 7.03331L11.335 8.39196L8.54789 9.98461C8.79573 10.4192 8.93734 10.9222 8.93734 11.4583C8.93734 11.73 8.90098 11.9931 8.83286 12.2432L13.8259 14.9667C14.3712 14.3604 15.1618 13.9792 16.0415 13.9792C17.6869 13.9792 19.0207 15.313 19.0207 16.9583C19.0207 18.6037 17.6869 19.9375 16.0415 19.9375C14.3962 19.9375 13.0623 18.6037 13.0623 16.9583C13.0623 16.6867 13.0987 16.4235 13.1668 16.1734L8.17379 13.45C7.62845 14.0562 6.83783 14.4375 5.95817 14.4375C4.31282 14.4375 2.979 13.1037 2.979 11.4583C2.979 9.81299 4.31282 8.47917 5.95817 8.47917C6.55463 8.47917 7.11014 8.65445 7.57602 8.95631L10.6647 7.19137L13.1668 5.82656C13.0987 5.57649 13.0623 5.31332 13.0623 5.04167ZM16.0415 3.4375C15.1555 3.4375 14.4373 4.15571 14.4373 5.04167C14.4373 5.92762 15.1555 6.64583 16.0415 6.64583C16.9275 6.64583 17.6457 5.92762 17.6457 5.04167C17.6457 4.15571 16.9275 3.4375 16.0415 3.4375ZM5.95817 9.85417C5.07221 9.85417 4.354 10.5724 4.354 11.4583C4.354 12.3443 5.07221 13.0625 5.95817 13.0625C6.84413 13.0625 7.56234 12.3443 7.56234 11.4583C7.56234 10.5724 6.84413 9.85417 5.95817 9.85417ZM14.4373 16.9583C14.4373 16.0724 15.1555 15.3542 16.0415 15.3542C16.9275 15.3542 17.6457 16.0724 17.6457 16.9583C17.6457 17.8443 16.9275 18.5625 16.0415 18.5625C15.1555 18.5625 14.4373 17.8443 14.4373 16.9583Z" fill="white"/>
</svg>
