<svg width="36" height="36" viewBox="0 0 36 36" fill="none" xmlns="http://www.w3.org/2000/svg">
<path d="M17.25 32.625C8.775 32.625 1.875 25.725 1.875 17.25C1.875 8.775 8.775 1.875 17.25 1.875C25.725 1.875 32.625 8.775 32.625 17.25C32.625 25.725 25.725 32.625 17.25 32.625Z" fill="#2852A9"/>
<path d="M21.3003 18.6748H13.8003C13.1853 18.6748 12.6753 18.1648 12.6753 17.5498C12.6753 16.9348 13.1853 16.4248 13.8003 16.4248H21.3003C21.9153 16.4248 22.4253 16.9348 22.4253 17.5498C22.4253 18.1648 21.9153 18.6748 21.3003 18.6748Z" fill="white"/>
<path d="M17.5503 22.4248C16.9353 22.4248 16.4253 21.9148 16.4253 21.2998V13.7998C16.4253 13.1848 16.9353 12.6748 17.5503 12.6748C18.1653 12.6748 18.6753 13.1848 18.6753 13.7998V21.2998C18.6753 21.9148 18.1653 22.4248 17.5503 22.4248Z" fill="white"/>
<path d="M32.5751 34.5C32.0858 34.5 31.5966 34.3199 31.2103 33.9339L26.0601 28.7874C25.3133 28.0411 25.3133 26.8059 26.0601 26.0597C26.8069 25.3134 28.0429 25.3134 28.7897 26.0597L33.9399 31.2062C34.6867 31.9525 34.6867 33.1876 33.9399 33.9339C33.5536 34.3199 33.0644 34.5 32.5751 34.5Z" fill="#2852A9"/>
</svg>
